<?xml version="1.0" standalone="no"?>
<!DOCTYPE svg PUBLIC "-//W3C//DTD SVG 20010904//EN"
 "http://www.w3.org/TR/2001/REC-SVG-20010904/DTD/svg10.dtd">
<svg version="1.0" xmlns="http://www.w3.org/2000/svg"
 width="420.000000pt" height="420.000000pt" viewBox="0 0 420.000000 420.000000"
 preserveAspectRatio="xMidYMid meet">

<g transform="translate(0.000000,420.000000) scale(0.100000,-0.100000)"
fill="rgb(28, 22, 16)" stroke="none">
<path d="M0 2100 l0 -2100 2100 0 2100 0 0 2100 0 2100 -2100 0 -2100 0 0
-2100z m2109 1862 c32 -23 55 -91 47 -137 -5 -25 -52 -98 -78 -118 -1 -1 -4
-83 -7 -182 l-6 -180 -55 0 -55 0 -6 180 c-3 99 -6 180 -7 181 -1 1 -18 21
-37 45 -30 38 -35 51 -35 99 0 69 16 100 60 123 45 23 141 18 179 -11z m-595
-324 c10 -13 16 -43 16 -73 0 -114 69 -218 182 -274 83 -42 88 -47 88 -97 0
-36 -5 -47 -26 -61 -24 -15 -29 -15 -70 0 -109 40 -239 159 -290 264 -20 42
-29 78 -32 130 -4 70 -3 74 26 103 38 37 83 41 106 8z m1098 -8 c29 -30 30
-33 26 -108 -5 -105 -31 -157 -132 -257 -79 -79 -181 -145 -223 -145 -36 0
-63 29 -63 68 0 48 5 54 69 87 123 62 201 170 201 280 0 74 18 105 61 105 21
0 40 -10 61 -30z m826 -6 c33 -38 30 -94 -8 -138 -31 -35 -31 -35 -29 -148 l2
-113 -114 -107 -114 -108 192 0 192 0 21 28 c12 15 60 66 106 114 73 76 83 90
74 107 -18 35 -11 71 19 102 83 83 191 -30 115 -120 -18 -21 -35 -31 -54 -31
-29 0 -84 -51 -230 -212 l-43 -48 -203 0 c-181 0 -204 -2 -204 -16 0 -36 -66
-137 -126 -194 -77 -71 -175 -121 -299 -151 -114 -28 -357 -31 -416 -6 -40 16
-66 69 -54 107 6 19 15 20 155 20 254 0 414 47 528 154 43 40 67 86 82 159 6
33 20 67 31 78 26 26 66 24 92 -5 l22 -24 87 86 88 86 0 113 c0 91 -3 113 -14
113 -25 0 -56 50 -56 89 0 90 99 132 158 65z m-2260 -170 c17 -12 22 -25 22
-63 0 -165 140 -287 444 -385 60 -20 113 -41 118 -48 14 -23 8 -58 -13 -79
-70 -70 -412 63 -569 221 -76 76 -112 146 -117 229 -3 54 -1 72 16 98 11 17
30 33 43 36 13 2 25 5 28 6 3 0 16 -6 28 -15z m1754 -11 c27 -24 41 -79 33
-131 -21 -140 -148 -271 -367 -378 -119 -58 -183 -76 -254 -72 -48 3 -60 7
-77 30 -26 34 -17 72 20 86 16 5 69 22 118 37 112 33 247 103 316 163 63 56
99 126 99 198 0 50 12 77 40 87 20 7 51 -2 72 -20z m-805 -215 l23 -21 0 -357
c0 -439 10 -410 -140 -410 -150 0 -140 -29 -140 408 0 432 -10 402 139 402 83
0 97 -3 118 -22z m-1164 -126 c9 -10 21 -43 27 -72 27 -144 117 -230 305 -290
60 -20 98 -24 263 -28 192 -4 192 -4 198 -28 10 -39 -9 -77 -49 -97 -58 -29
-301 -28 -422 2 -137 33 -227 81 -311 165 -88 89 -117 147 -122 243 -4 66 -2
74 21 97 30 30 67 33 90 8z m2936 -428 c44 -57 10 -144 -57 -144 -27 0 -72 31
-72 50 0 6 -94 10 -244 10 l-243 0 -6 -50 c-18 -152 -165 -292 -354 -336 -227
-54 -643 30 -643 129 0 12 9 37 21 56 24 39 29 39 164 -9 77 -28 106 -33 215
-37 180 -7 287 21 375 99 41 35 60 69 81 139 8 26 20 52 27 56 6 4 146 6 310
4 173 -2 297 1 297 6 0 5 9 19 20 31 30 32 82 30 109 -4z m-3037 -41 c10 -9
25 -40 34 -69 43 -148 180 -224 403 -224 108 0 217 20 299 54 34 14 70 26 80
26 25 0 50 -29 62 -70 8 -27 6 -35 -14 -54 -55 -56 -270 -108 -446 -108 -229
-1 -389 69 -478 209 -36 57 -66 155 -58 188 14 56 80 83 118 48z m1269 -292
c17 -21 19 -40 19 -174 0 -193 5 -187 -141 -187 -142 0 -139 -4 -138 185 0 77
4 148 8 159 14 35 51 46 144 44 80 -3 91 -5 108 -27z m1760 -100 c20 -20 29
-40 29 -61 0 -41 -39 -80 -80 -80 -32 0 -70 30 -70 55 0 13 -36 15 -266 15
l-265 0 3 23 3 22 259 3 259 2 29 25 c39 33 63 32 99 -4z m-3061 -111 c10 -5
39 -41 64 -78 74 -112 164 -158 306 -156 132 2 259 47 375 135 82 62 135 50
135 -29 0 -16 -9 -41 -21 -56 -48 -62 -226 -159 -345 -190 -79 -21 -228 -21
-308 0 -199 51 -363 268 -271 359 27 27 37 30 65 15z m2439 -16 c12 -15 21
-40 21 -56 0 -39 -34 -105 -78 -150 l-36 -38 235 0 235 0 64 -65 c62 -63 65
-64 105 -58 23 3 51 0 62 -5 27 -15 47 -65 39 -97 -25 -97 -166 -80 -166 20 0
31 -9 44 -62 95 l-63 59 -251 1 c-249 0 -252 0 -296 -25 -76 -42 -160 -58
-278 -52 -116 5 -191 27 -317 90 -91 46 -141 90 -165 145 -18 40 -18 45 -4 68
23 34 52 30 121 -17 139 -93 245 -130 380 -130 160 0 257 50 330 171 15 25 34
51 43 58 26 20 59 14 81 -14z m-1131 -246 c7 -7 12 -39 12 -74 0 -89 -8 -94
-132 -94 -128 0 -138 7 -138 95 0 34 5 66 12 73 8 8 50 12 123 12 73 0 115 -4
123 -12z m-464 -204 c14 -36 4 -75 -35 -132 -111 -168 -310 -262 -490 -235
-110 17 -176 58 -230 142 -34 53 -36 84 -9 111 31 31 72 25 116 -16 82 -76
111 -89 199 -89 113 0 183 35 298 150 69 69 90 85 115 85 18 0 32 -6 36 -16z
m819 -62 c95 -90 129 -113 214 -141 115 -39 194 -21 284 64 52 49 89 57 121
28 41 -37 17 -105 -62 -176 -89 -80 -209 -104 -349 -69 -99 26 -172 66 -251
139 -86 79 -133 186 -98 221 27 27 59 12 141 -66z m-353 -21 c16 -31 12 -112
-7 -133 -14 -15 -32 -18 -119 -18 -56 0 -109 3 -118 6 -12 5 -16 21 -16 73 0
39 5 72 12 79 8 8 50 12 125 12 101 0 113 -2 123 -19z m-12 -237 c17 -12 22
-25 22 -62 0 -27 -7 -57 -16 -70 -14 -20 -23 -22 -123 -22 -70 0 -111 4 -119
12 -7 7 -12 39 -12 75 0 48 4 64 18 72 29 17 204 14 230 -5z m4 -241 c24 -22
25 -109 1 -135 -14 -15 -32 -18 -118 -18 -130 0 -140 6 -137 86 3 79 12 84
136 84 78 0 103 -3 118 -17z m-1467 -550 c4 -10 24 -65 45 -123 21 -58 49
-135 64 -172 l25 -68 -33 0 c-30 0 -34 4 -45 40 l-12 40 -79 0 -79 0 -12 -39
c-10 -34 -16 -40 -45 -43 -19 -2 -34 -3 -34 -2 0 3 113 316 129 357 8 21 17
27 40 27 18 0 31 -6 36 -17z m457 -21 c91 -57 105 -213 26 -289 -45 -44 -76
-53 -174 -53 l-84 0 0 188 0 187 97 -5 c79 -4 105 -9 135 -28z m238 -155 l0
-194 -30 0 -30 0 0 194 0 193 30 0 30 0 0 -193z m367 172 c54 -26 92 -87 100
-161 11 -109 -77 -208 -184 -208 -192 0 -254 283 -81 369 54 27 110 27 165 0z
m263 -144 l0 -165 75 0 c73 0 75 -1 75 -25 l0 -25 -110 0 -110 0 0 190 0 190
35 0 35 0 0 -165z m463 151 c39 -16 82 -61 96 -99 15 -39 14 -131 -3 -170 -18
-44 -78 -95 -121 -103 -125 -23 -225 60 -225 188 0 68 12 103 48 142 51 54
136 72 205 42z m452 -5 c22 -10 46 -26 54 -35 13 -15 12 -20 -7 -38 l-21 -21
-19 23 c-22 27 -106 39 -141 20 -36 -19 -61 -70 -61 -125 0 -89 45 -138 126
-138 52 0 84 26 84 69 0 20 -5 23 -47 26 -44 3 -48 5 -51 31 l-3 27 82 0 82 0
-5 -65 c-7 -76 -26 -111 -73 -131 -83 -34 -187 -3 -230 69 -48 83 -42 176 18
244 56 63 134 80 212 44z m376 -98 c23 -65 55 -151 70 -192 16 -41 28 -76 26
-77 -1 -1 -17 1 -34 3 -28 4 -35 11 -45 44 l-11 39 -79 0 -78 0 -16 -39 c-12
-31 -22 -40 -45 -43 -16 -3 -29 -2 -29 1 0 3 30 90 67 194 l68 187 31 0 c31 0
32 -1 75 -117z m-2964 87 c47 -28 62 -85 37 -137 -11 -21 -29 -42 -41 -48 -13
-5 -23 -12 -23 -15 0 -3 20 -37 45 -75 25 -39 45 -72 45 -75 0 -4 -16 -4 -35
-2 -32 4 -41 12 -83 78 -36 56 -52 74 -69 74 -22 0 -23 -4 -23 -78 l0 -79 -27
5 -28 4 -2 184 -3 184 88 0 c69 0 94 -4 119 -20z m3340 0 c66 -40 63 -153 -4
-182 -15 -7 -29 -13 -31 -13 -1 -1 21 -37 49 -79 28 -43 49 -79 47 -80 -1 -2
-19 -1 -38 1 -31 4 -40 13 -80 79 -34 56 -50 73 -67 74 -22 0 -23 -4 -23 -79
l0 -78 -27 1 -28 1 -3 188 -2 187 87 0 c70 0 95 -4 120 -20z m212 -59 c27 -45
47 -69 49 -60 3 8 23 42 44 77 36 56 43 62 73 62 l34 0 -64 -109 -65 -110 0
-80 0 -81 -30 0 -30 0 0 83 0 82 -65 108 -65 108 37 -3 c34 -3 40 -9 82 -77z"/>
<path d="M3330 3589 c-25 -45 19 -100 62 -78 45 24 28 99 -22 99 -19 0 -33 -7
-40 -21z"/>
<path d="M3802 3328 c-28 -28 -3 -72 39 -66 30 4 47 33 33 56 -14 21 -55 27
-72 10z"/>
<path d="M3822 2648 c-32 -32 2 -87 40 -67 31 17 17 79 -17 79 -6 0 -16 -5
-23 -12z"/>
<path d="M3810 2201 c-15 -28 21 -71 47 -55 23 14 28 41 13 59 -17 21 -47 19
-60 -4z"/>
<path d="M3806 1694 c-21 -21 -20 -37 3 -58 38 -34 85 26 49 62 -16 16 -33 15
-52 -4z"/>
<path d="M601 418 c-13 -40 -26 -79 -28 -85 -4 -10 11 -13 57 -13 55 0 61 2
55 18 -4 9 -16 44 -27 77 -12 33 -24 63 -27 68 -4 4 -18 -26 -30 -65z"/>
<path d="M950 376 l0 -136 40 0 c106 0 168 78 141 177 -17 61 -50 86 -121 91
l-60 4 0 -136z"/>
<path d="M1570 483 c-106 -95 -12 -292 114 -239 90 37 105 194 24 250 -37 26
-103 21 -138 -11z"/>
<path d="M2341 507 c-54 -19 -76 -57 -76 -132 0 -77 22 -114 82 -133 78 -25
142 24 151 116 10 108 -66 180 -157 149z"/>
<path d="M3177 412 c-15 -43 -27 -81 -27 -85 0 -4 27 -7 59 -7 l60 0 -26 78
c-14 42 -28 80 -32 84 -3 4 -18 -28 -34 -70z"/>
<path d="M170 450 l0 -60 46 0 c64 0 84 13 84 55 0 43 -29 65 -87 65 l-43 0 0
-60z"/>
<path d="M3510 450 l0 -60 46 0 c64 0 84 13 84 55 0 43 -29 65 -87 65 l-43 0
0 -60z"/>
</g>
</svg>
