<?xml version="1.0" standalone="no"?>
<!DOCTYPE svg PUBLIC "-//W3C//DTD SVG 20010904//EN"
 "http://www.w3.org/TR/2001/REC-SVG-20010904/DTD/svg10.dtd">
<svg version="1.0" xmlns="http://www.w3.org/2000/svg"
 width="420.000000pt" height="420.000000pt" viewBox="0 0 420.000000 420.000000"
 preserveAspectRatio="xMidYMid meet">

<g transform="translate(0.000000,420.000000) scale(0.100000,-0.100000)"
fill="#000000" stroke="none">
<path d="M2021 4032 c-85 -43 -101 -129 -41 -222 l35 -54 5 -191 5 -190 63 -3
62 -3 0 165 c0 178 9 227 56 296 30 43 32 112 5 156 -36 59 -124 80 -190 46z"/>
<path d="M3424 3701 c-28 -12 -64 -59 -64 -83 0 -27 26 -74 50 -91 19 -13 21
-26 23 -121 l1 -107 -89 -89 -89 -90 -26 25 c-14 14 -36 25 -47 25 -31 0 -62
-45 -69 -101 -12 -92 -86 -175 -210 -237 -108 -54 -171 -66 -361 -68 -194 -1
-206 -5 -201 -62 2 -25 11 -41 31 -56 26 -19 41 -21 195 -21 200 0 269 14 418
85 84 41 111 60 165 118 37 38 74 90 85 115 l19 47 226 0 226 0 23 -25 c32
-34 82 -34 115 0 47 46 25 119 -42 139 -27 8 -78 -16 -93 -44 -10 -19 -21 -20
-225 -20 -118 0 -215 4 -215 8 0 4 50 57 110 118 l110 110 0 116 0 116 35 35
c44 44 47 84 8 127 -30 32 -75 45 -109 31z m82 -66 c15 -23 15 -27 0 -50 -11
-17 -26 -25 -44 -25 -35 0 -52 16 -52 50 0 34 17 50 52 50 18 0 33 -8 44 -25z
m314 -590 c15 -18 10 -45 -12 -59 -33 -20 -69 20 -54 60 7 18 50 18 66 -1z"/>
<path d="M1489 3681 c-21 -17 -24 -27 -24 -93 1 -63 6 -82 34 -138 81 -156
317 -320 370 -256 7 8 11 34 9 58 -3 42 -4 44 -70 76 -127 63 -208 171 -208
277 0 29 -7 60 -16 73 -19 28 -63 29 -95 3z"/>
<path d="M2605 3686 c-13 -10 -21 -33 -26 -85 -10 -89 -45 -158 -114 -217 -27
-24 -70 -52 -95 -61 -64 -23 -70 -30 -70 -77 0 -77 39 -85 148 -31 164 82 260
218 264 376 2 54 -1 72 -16 88 -22 24 -64 27 -91 7z"/>
<path d="M1169 3484 c-51 -54 -22 -199 62 -305 61 -77 236 -181 394 -234 95
-32 161 -36 198 -12 50 33 26 99 -40 112 -76 14 -220 66 -288 104 -140 78
-215 173 -215 271 0 85 -59 120 -111 64z"/>
<path d="M2916 3481 c-9 -16 -16 -48 -16 -71 0 -146 -207 -299 -485 -360 -60
-13 -85 -34 -85 -71 0 -96 148 -82 389 37 107 54 146 79 195 128 75 73 116
151 123 233 6 82 -17 127 -69 131 -32 3 -39 -1 -52 -27z"/>
<path d="M2060 3292 c-53 -4 -91 -23 -101 -49 -5 -13 -9 -177 -9 -363 0 -186
4 -350 9 -363 14 -36 59 -50 146 -45 61 3 79 7 97 26 23 22 23 24 26 370 2
191 0 357 -3 369 -9 38 -81 62 -165 55z"/>
<path d="M961 3151 c-46 -46 -45 -145 1 -240 53 -109 211 -218 383 -262 102
-26 325 -37 407 -20 82 18 115 73 68 116 -17 16 -42 18 -192 20 -128 1 -189 6
-232 19 -163 46 -290 144 -320 246 -9 30 -16 64 -16 77 0 28 -33 63 -60 63
-11 0 -29 -9 -39 -19z"/>
<path d="M853 2684 c-23 -23 -25 -31 -21 -88 12 -147 136 -274 326 -333 79
-24 92 -26 220 -20 185 9 380 55 435 104 22 21 22 65 -1 86 -24 22 -62 21
-147 -3 -211 -60 -405 -56 -538 11 -81 42 -143 116 -161 194 -9 37 -43 75 -68
75 -10 0 -31 -12 -45 -26z"/>
<path d="M3243 2688 c-12 -13 -24 -39 -28 -58 -11 -53 -29 -82 -78 -127 -86
-79 -187 -114 -337 -114 -103 -1 -188 11 -291 42 -83 24 -121 24 -142 1 -22
-24 -21 -65 1 -85 28 -26 128 -63 217 -82 125 -25 326 -31 405 -11 99 25 187
74 255 141 72 70 106 136 108 210 2 44 -2 58 -22 79 -30 32 -61 33 -88 4z"/>
<path d="M1993 2396 c-42 -19 -45 -36 -41 -195 3 -127 4 -131 31 -158 25 -26
33 -28 107 -28 74 0 82 2 107 28 28 27 28 29 31 177 l3 149 -27 18 c-37 24
-165 29 -211 9z"/>
<path d="M3724 2306 l-36 -36 -191 -2 -192 -3 0 -25 0 -25 198 -2 198 -2 31
-26 c25 -21 38 -25 62 -21 103 21 101 151 -2 172 -27 6 -37 1 -68 -30z m104
-54 c2 -13 -6 -27 -23 -38 -24 -16 -27 -16 -45 1 -26 24 -25 50 2 69 19 13 25
14 43 2 11 -7 21 -23 23 -34z"/>
<path d="M845 2155 c-14 -13 -25 -34 -25 -47 0 -70 102 -199 198 -251 145 -78
359 -73 550 14 179 81 266 177 200 223 -34 24 -58 20 -117 -20 -152 -102 -372
-149 -508 -109 -61 18 -139 84 -178 151 -23 40 -56 64 -86 64 -5 0 -21 -11
-34 -25z"/>
<path d="M3279 2166 c-13 -6 -33 -27 -44 -45 -37 -61 -88 -112 -139 -139 -48
-25 -59 -27 -176 -27 -162 1 -276 35 -405 121 -60 39 -87 42 -115 14 -40 -40
-16 -85 78 -149 115 -77 210 -113 352 -132 118 -16 213 -7 291 27 58 26 77 28
204 31 l140 4 90 -91 c70 -70 96 -90 117 -90 19 0 28 -5 28 -15 0 -29 47 -65
84 -65 26 0 40 7 60 31 34 41 33 73 -4 111 -27 26 -36 30 -67 25 -19 -4 -43
-13 -53 -22 -9 -8 -24 -15 -34 -15 -9 0 -59 41 -110 90 l-93 90 -108 0 -107 0
31 35 c66 76 91 165 54 197 -28 23 -48 27 -74 14z m537 -447 c20 -22 13 -43
-19 -63 -38 -24 -74 35 -42 68 22 21 38 20 61 -5z"/>
<path d="M1991 1917 c-14 -6 -28 -25 -33 -42 -12 -42 0 -103 22 -115 10 -6 61
-10 112 -10 119 0 132 8 132 80 0 45 -4 56 -28 76 -23 21 -37 24 -104 24 -42
0 -88 -6 -101 -13z"/>
<path d="M1604 1642 c-108 -107 -188 -147 -294 -146 -90 0 -148 23 -213 84
-49 44 -77 50 -107 20 -25 -25 -25 -44 -1 -95 24 -53 64 -88 132 -120 146 -66
304 -49 452 49 65 43 162 144 185 193 15 31 15 37 1 61 -10 18 -24 28 -45 30
-26 3 -41 -8 -110 -76z"/>
<path d="M2430 1705 c-33 -40 5 -119 102 -211 107 -102 213 -147 348 -147 94
0 162 21 232 69 74 52 111 150 70 187 -29 26 -59 20 -99 -19 -67 -64 -127 -88
-218 -88 -113 -1 -184 34 -288 144 -61 64 -82 80 -105 80 -16 0 -35 -7 -42
-15z"/>
<path d="M1971 1636 c-7 -8 -11 -38 -9 -72 4 -74 20 -84 136 -84 104 0 122 14
122 93 0 29 -5 58 -12 65 -18 18 -222 16 -237 -2z"/>
<path d="M1978 1389 c-26 -14 -25 -109 0 -132 28 -26 202 -24 225 1 20 22 23
112 5 130 -15 15 -205 16 -230 1z"/>
<path d="M1972 1148 c-7 -7 -12 -33 -12 -59 0 -70 28 -89 132 -89 70 0 82 3
103 25 19 18 25 35 25 68 0 23 -5 48 -12 55 -16 16 -220 16 -236 0z"/>
<path d="M642 593 c-91 -254 -122 -343 -122 -348 0 -3 13 -5 29 -5 26 0 31 5
43 43 l15 42 75 3 76 3 17 -46 c16 -41 21 -45 50 -45 l33 0 -27 68 c-15 37
-48 122 -72 189 -44 122 -44 123 -76 123 -25 0 -33 -5 -41 -27z m67 -120 c12
-38 25 -74 28 -80 3 -10 -11 -13 -52 -13 -50 0 -57 2 -52 18 23 84 43 142 48
142 3 0 15 -30 28 -67z"/>
<path d="M1611 602 c-19 -9 -48 -34 -65 -55 -41 -51 -49 -152 -18 -213 50 -97
141 -129 239 -85 102 47 136 212 62 305 -48 61 -150 84 -218 48z m155 -67 c38
-41 51 -100 35 -161 -15 -55 -50 -85 -104 -91 -40 -5 -48 -2 -83 29 -34 32
-38 41 -42 95 -7 104 36 162 122 163 32 0 45 -6 72 -35z"/>
<path d="M2335 606 c-90 -40 -132 -172 -86 -271 22 -48 44 -69 94 -90 71 -29
147 -14 199 41 36 38 48 74 48 139 0 65 -12 101 -48 139 -50 54 -140 72 -207
42z m152 -70 c34 -31 37 -39 41 -97 3 -55 0 -69 -20 -99 -31 -45 -64 -62 -111
-56 -151 18 -137 286 14 286 31 0 48 -8 76 -34z"/>
<path d="M2770 601 c-102 -54 -132 -213 -58 -307 46 -58 151 -80 217 -46 50
25 70 58 77 130 l7 62 -77 0 -76 0 0 -28 c0 -26 2 -27 45 -24 44 4 45 4 45
-27 0 -100 -156 -105 -201 -7 -59 130 46 261 161 201 16 -8 33 -22 38 -30 7
-13 12 -12 31 9 l23 25 -48 30 c-58 37 -129 42 -184 12z"/>
<path d="M3141 437 c-35 -100 -66 -187 -68 -193 -3 -8 6 -10 28 -5 27 5 35 13
47 49 l14 43 76 -3 75 -3 16 -42 c14 -39 18 -43 48 -43 l33 0 -21 53 c-23 57
-119 320 -119 324 0 2 -15 3 -32 3 l-33 0 -64 -183z m123 29 c14 -41 26 -77
26 -80 0 -3 -25 -6 -56 -6 -41 0 -55 3 -52 13 3 6 15 42 28 80 13 37 25 67 26
67 1 0 13 -33 28 -74z"/>
<path d="M3783 608 c2 -7 32 -59 64 -115 l60 -103 -3 -75 -4 -75 36 0 36 0 -3
83 -3 82 50 85 c83 139 80 130 41 130 -31 0 -36 -4 -76 -81 -24 -44 -47 -77
-51 -72 -5 4 -26 40 -48 78 -35 62 -43 70 -72 73 -24 3 -31 0 -27 -10z"/>
<path d="M190 423 l0 -190 30 5 30 4 0 74 c0 70 1 74 23 74 17 0 33 -17 67
-74 42 -69 48 -75 83 -78 20 -2 37 -2 37 -1 0 2 -22 37 -49 78 l-49 74 24 16
c58 38 67 117 19 172 -22 26 -29 28 -119 31 l-96 4 0 -189z m170 117 c24 -24
25 -48 4 -78 -12 -18 -25 -22 -65 -22 l-49 0 0 60 0 60 45 0 c32 0 51 -6 65
-20z"/>
<path d="M940 426 l0 -186 85 0 c100 0 138 13 182 63 52 59 57 159 10 227 -43
63 -68 75 -178 78 l-99 4 0 -186z m211 96 c83 -93 22 -232 -102 -232 l-49 0 0
136 0 136 61 -4 c54 -4 66 -9 90 -36z"/>
<path d="M1350 422 l0 -188 28 2 27 1 3 186 2 187 -30 0 -30 0 0 -188z"/>
<path d="M1960 425 l0 -185 110 0 110 0 0 25 c0 25 -1 25 -80 25 l-80 0 0 160
0 160 -30 0 -30 0 0 -185z"/>
<path d="M3480 427 l0 -185 30 -4 30 -5 0 77 c0 74 1 78 23 78 18 0 34 -17 69
-73 41 -65 50 -73 82 -77 20 -2 36 -1 36 2 0 4 -22 39 -49 78 l-50 72 28 15
c57 29 66 124 16 174 -23 24 -34 26 -120 29 l-95 4 0 -185z m172 116 c20 -18
23 -54 8 -84 -9 -15 -22 -19 -65 -19 l-55 0 0 60 0 60 47 0 c29 0 53 -6 65
-17z"/>
</g>
</svg>
