<?xml version="1.0" standalone="no"?>
<!DOCTYPE svg PUBLIC "-//W3C//DTD SVG 20010904//EN"
 "http://www.w3.org/TR/2001/REC-SVG-20010904/DTD/svg10.dtd">
<svg version="1.0" xmlns="http://www.w3.org/2000/svg"
 width="420.000000pt" height="419.000000pt" viewBox="0 0 420.000000 419.000000"
 preserveAspectRatio="xMidYMid meet">

<g transform="translate(0.000000,419.000000) scale(0.100000,-0.100000)"
fill="#000000" stroke="none">
<path d="M0 2095 l0 -2095 2100 0 2100 0 0 2095 0 2095 -2100 0 -2100 0 0
-2095z m2150 1823 c38 -20 47 -30 57 -68 17 -59 8 -102 -33 -151 -19 -23 -35
-42 -36 -42 -1 -1 -4 -83 -7 -182 l-6 -180 -55 0 -55 0 -5 175 c-5 185 -8 197
-62 256 -27 30 -27 127 -1 163 39 52 131 65 203 29z m-576 -330 c9 -12 16 -41
16 -63 0 -23 7 -65 15 -93 20 -66 105 -158 190 -205 59 -32 60 -34 63 -79 3
-41 0 -49 -23 -64 -22 -14 -32 -15 -64 -6 -97 30 -250 163 -299 262 -20 42
-28 74 -31 132 -3 75 -2 78 27 108 38 37 83 41 106 8z m1096 -5 c32 -27 32
-27 28 -107 -6 -108 -37 -168 -137 -266 -74 -73 -178 -140 -218 -140 -39 0
-63 28 -63 75 0 44 1 45 52 71 68 34 158 121 188 181 15 29 27 75 31 117 5 50
11 73 25 83 28 20 59 16 94 -14z m823 -3 c47 -37 44 -135 -4 -161 -17 -8 -19
-23 -19 -116 l0 -106 -122 -121 -123 -121 228 -3 229 -2 20 25 c28 36 88 35
117 -1 55 -70 -11 -166 -90 -134 -17 7 -35 24 -40 37 l-9 23 -230 0 c-186 0
-230 -3 -230 -13 0 -8 -13 -41 -30 -74 -61 -122 -207 -228 -379 -276 -101 -28
-387 -30 -438 -4 -34 18 -59 72 -48 107 6 19 15 20 161 20 169 0 266 15 368
56 126 50 219 149 232 244 10 73 36 110 78 110 24 0 39 -7 49 -20 14 -20 18
-17 111 71 l96 91 0 99 c0 76 -3 99 -13 99 -20 0 -54 41 -62 73 -21 83 81 149
148 97z m-2245 -188 c6 -9 12 -35 12 -58 0 -55 23 -117 61 -165 63 -80 224
-168 394 -216 106 -30 115 -36 115 -74 0 -94 -140 -92 -349 7 -164 77 -282
178 -331 281 -28 58 -37 166 -18 203 26 48 86 60 116 22z m1743 -1 c26 -26 29
-36 29 -90 0 -101 -30 -163 -124 -256 -67 -66 -101 -91 -191 -137 -139 -71
-219 -98 -292 -98 -63 0 -103 25 -103 65 0 34 30 53 136 86 212 66 367 168
415 272 11 25 19 65 19 99 0 47 4 59 22 72 33 23 56 20 89 -13z m-807 -212
l26 -20 0 -364 0 -364 -26 -20 c-23 -18 -41 -21 -120 -21 -144 0 -135 -27
-132 413 l3 359 24 19 c35 29 187 28 225 -2z m-1166 -126 c13 -12 25 -39 31
-75 20 -115 87 -193 214 -254 102 -48 198 -64 388 -64 l159 0 6 -25 c9 -37 -9
-78 -46 -99 -29 -17 -53 -20 -199 -20 -138 1 -179 4 -246 22 -227 62 -384 204
-416 378 -12 64 1 116 34 139 28 20 50 19 75 -2z m2312 -494 c29 -68 -26 -206
-114 -286 -103 -94 -226 -135 -406 -135 -127 -1 -204 11 -327 48 -96 28 -143
63 -143 104 0 31 34 80 57 80 8 0 63 -16 121 -36 92 -32 123 -38 222 -42 131
-5 208 7 289 43 94 43 131 88 173 210 8 22 24 45 37 51 33 17 76 0 91 -37z
m-2408 24 c9 -10 23 -43 31 -73 41 -142 184 -220 402 -220 123 0 196 13 292
51 41 16 82 29 91 29 30 0 53 -23 62 -63 11 -49 -13 -76 -90 -106 -304 -116
-628 -83 -792 82 -96 96 -136 229 -88 290 25 32 69 36 92 10z m1269 -292 c17
-20 19 -40 19 -172 0 -185 1 -183 -123 -192 -145 -12 -157 3 -157 193 0 189
10 201 153 197 80 -2 91 -4 108 -26z m1623 -92 c33 -39 34 -82 1 -114 -34 -35
-79 -33 -115 5 l-28 30 -187 0 -186 0 3 23 c3 22 4 22 196 25 158 2 192 5 192
17 0 20 40 45 71 45 18 0 36 -10 53 -31z m-2929 -115 c9 -4 36 -37 60 -75 74
-114 166 -162 310 -161 135 0 245 39 372 128 87 62 143 58 143 -8 0 -69 -72
-133 -235 -209 -232 -109 -468 -90 -628 51 -96 85 -133 194 -86 254 21 27 35
31 64 20z m2445 -14 c40 -40 17 -137 -50 -213 l-32 -37 107 0 108 0 86 -85
c93 -90 122 -103 165 -70 46 35 120 1 132 -61 4 -24 0 -37 -21 -62 -47 -56
-128 -37 -141 33 -6 32 -9 35 -43 35 -32 0 -45 9 -116 80 l-80 80 -128 0
c-116 0 -132 -2 -177 -25 -106 -53 -262 -69 -390 -40 -92 22 -278 116 -328
167 -54 54 -71 102 -46 129 26 29 63 23 129 -22 135 -92 247 -131 380 -131 69
-1 103 4 147 21 63 24 150 97 175 145 37 74 84 95 123 56z m-1140 -250 c15
-15 20 -33 20 -77 0 -86 -10 -93 -140 -93 -69 0 -110 4 -118 12 -7 7 -12 40
-12 79 0 91 12 99 137 99 80 0 96 -3 113 -20z m-466 -196 c30 -11 20 -79 -20
-140 -110 -166 -326 -268 -496 -234 -112 22 -211 90 -244 167 -18 42 -18 62 3
85 31 34 77 23 139 -33 67 -61 107 -79 172 -79 56 0 148 29 195 61 18 12 69
58 113 101 78 75 100 86 138 72z m835 -77 c100 -97 118 -109 200 -137 116 -39
193 -22 287 64 57 50 88 57 124 28 53 -43 -17 -165 -123 -216 -84 -41 -176
-52 -271 -33 -106 22 -175 57 -253 130 -126 118 -165 247 -75 247 17 0 51 -25
111 -83z m-362 -14 c21 -28 16 -110 -7 -133 -17 -17 -33 -20 -119 -20 -123 0
-131 5 -131 95 0 45 4 66 14 72 8 4 63 7 123 6 89 -2 110 -5 120 -20z m-6
-233 c15 -9 19 -22 19 -70 0 -81 -14 -90 -139 -90 -119 0 -131 9 -131 90 0 31
5 61 12 68 15 15 211 16 239 2z m-1481 -743 c0 -2 31 -88 69 -190 l69 -187
-32 0 c-28 0 -33 5 -46 43 l-15 42 -77 3 -76 3 -14 -43 c-13 -38 -19 -43 -48
-46 -28 -3 -32 -1 -25 15 4 10 34 92 66 182 33 90 62 168 65 172 5 8 64 13 64
6z m436 -25 c89 -49 119 -187 61 -273 -37 -55 -79 -73 -184 -77 l-93 -4 0 188
0 189 97 -5 c54 -3 108 -11 119 -18z m613 10 c19 -9 48 -34 65 -55 42 -52 49
-144 16 -212 -33 -67 -91 -99 -173 -93 -107 7 -167 72 -167 182 0 66 12 101
48 140 53 56 144 73 211 38z m261 -145 l0 -162 78 0 c77 0 77 0 80 -27 l3 -28
-110 0 -111 0 0 190 0 190 30 0 30 0 0 -163z m475 140 c123 -70 126 -253 6
-334 -41 -27 -135 -32 -180 -8 -126 64 -131 266 -9 339 56 34 127 35 183 3z
m428 9 c18 -7 41 -23 51 -35 19 -20 19 -22 1 -41 l-18 -20 -22 20 c-52 49
-137 43 -176 -11 -29 -41 -35 -105 -16 -152 41 -96 188 -105 199 -12 l4 35
-48 0 c-45 0 -48 2 -48 25 0 24 2 25 75 25 l75 0 0 -50 c0 -105 -43 -150 -145
-150 -62 0 -97 14 -138 57 -83 88 -51 261 58 309 39 17 107 18 148 0z m414
-176 l70 -190 -33 0 c-29 0 -34 4 -46 43 l-15 42 -75 3 -75 3 -17 -46 c-16
-40 -21 -45 -48 -45 -20 0 -29 4 -26 13 3 6 33 92 68 190 l63 177 32 0 32 0
70 -190z m736 143 c-15 -27 -44 -76 -65 -111 -36 -58 -38 -67 -38 -142 l0 -80
-30 0 -30 0 0 80 0 80 -64 105 -65 105 37 0 c35 0 39 -4 77 -70 22 -38 43 -70
46 -70 3 0 23 31 44 70 39 68 44 72 103 79 8 0 3 -17 -15 -46z m-3672 -1 c50
-56 34 -138 -31 -166 l-27 -11 48 -74 c27 -40 49 -75 49 -77 0 -2 -15 -4 -34
-4 -32 0 -38 5 -81 75 -32 51 -53 75 -66 75 -17 0 -19 -8 -19 -75 l0 -75 -30
0 -30 0 0 186 0 186 96 -4 c94 -3 96 -4 125 -36z m994 -147 l0 -185 -32 0 -33
0 0 185 0 185 33 0 32 0 0 -185z m2301 151 c27 -27 34 -42 34 -74 0 -43 -38
-102 -66 -102 -21 0 -18 -9 35 -87 l49 -73 -36 0 c-35 0 -40 4 -85 75 -33 52
-54 75 -67 75 -18 0 -20 -7 -20 -75 l0 -75 -30 0 -30 0 0 185 0 185 91 0 c90
0 91 0 125 -34z"/>
<path d="M3402 3538 c-17 -17 -15 -63 2 -78 23 -18 59 -8 75 22 14 24 14 28
-3 47 -21 23 -56 27 -74 9z"/>
<path d="M3729 2936 c-9 -20 -9 -29 1 -41 28 -34 87 5 64 43 -18 28 -52 27
-65 -2z"/>
<path d="M3736 2174 c-19 -18 -21 -45 -4 -62 20 -20 48 -14 60 13 9 21 8 28
-7 45 -22 24 -29 25 -49 4z"/>
<path d="M3740 1620 c-25 -25 -25 -32 1 -56 25 -23 53 -9 57 29 5 38 -30 55
-58 27z"/>
<path d="M651 417 c-12 -39 -25 -78 -28 -84 -3 -10 11 -13 55 -13 l59 0 -29
82 c-16 45 -30 84 -32 85 -1 1 -12 -30 -25 -70z"/>
<path d="M990 365 l0 -136 53 7 c60 7 89 23 114 61 22 33 21 114 -2 149 -21
32 -72 54 -125 54 l-40 0 0 -135z"/>
<path d="M1633 496 c-52 -23 -75 -70 -70 -140 3 -53 7 -62 41 -94 35 -31 43
-34 83 -29 50 5 80 28 99 74 50 117 -48 236 -153 189z"/>
<path d="M2365 496 c-50 -22 -68 -51 -73 -115 -5 -69 14 -113 58 -136 86 -45
174 18 174 125 0 59 -25 103 -68 124 -41 19 -52 19 -91 2z"/>
<path d="M3211 417 c-13 -39 -26 -78 -28 -84 -4 -10 10 -13 51 -13 31 0 56 2
56 4 0 5 -52 160 -54 163 -1 2 -13 -30 -25 -70z"/>
<path d="M240 440 l0 -60 49 0 c40 0 53 4 65 22 36 51 3 98 -69 98 l-45 0 0
-60z"/>
<path d="M3540 440 l0 -60 45 0 c32 0 51 6 65 20 45 45 9 100 -65 100 l-45 0
0 -60z"/>
</g>
</svg>
