<?xml version="1.0" standalone="no"?>
<!DOCTYPE svg PUBLIC "-//W3C//DTD SVG 20010904//EN"
 "http://www.w3.org/TR/2001/REC-SVG-20010904/DTD/svg10.dtd">
<svg version="1.0" xmlns="http://www.w3.org/2000/svg"
 width="420.000000pt" height="420.000000pt" viewBox="0 0 420.000000 420.000000"
 preserveAspectRatio="xMidYMid meet">

<g transform="translate(0.000000,420.000000) scale(0.100000,-0.100000)"
fill="#000000" stroke="none">
<path d="M2031 4042 c-71 -36 -99 -117 -62 -182 56 -98 56 -96 61 -290 l5
-185 63 -3 62 -3 0 165 c0 178 9 224 55 293 50 72 26 170 -48 204 -53 23 -92
24 -136 1z"/>
<path d="M1493 3684 c-24 -24 -25 -30 -21 -97 7 -98 41 -162 138 -259 54 -54
96 -87 141 -108 98 -46 139 -40 139 20 0 59 -8 69 -75 101 -72 34 -155 116
-185 181 -11 24 -20 64 -20 89 0 88 -63 127 -117 73z"/>
<path d="M2610 3690 c-14 -14 -20 -33 -20 -63 0 -110 -85 -228 -208 -289 -66
-32 -67 -34 -70 -76 -6 -82 32 -92 145 -36 94 47 180 129 223 214 41 81 54
202 26 245 -20 31 -67 34 -96 5z"/>
<path d="M1181 3495 c-64 -82 -19 -241 100 -348 104 -95 365 -215 477 -220 62
-3 102 22 102 62 0 39 -24 57 -100 75 -203 46 -389 156 -442 259 -11 23 -24
70 -29 106 -8 69 -24 91 -65 91 -12 0 -32 -11 -43 -25z"/>
<path d="M2924 3485 c-7 -19 -14 -49 -14 -67 0 -48 -41 -128 -87 -169 -86 -78
-240 -152 -382 -185 -77 -18 -101 -36 -101 -75 0 -39 40 -64 100 -62 53 2 195
50 295 101 152 76 238 151 282 249 57 125 34 243 -48 243 -25 0 -33 -6 -45
-35z"/>
<path d="M2005 3288 c-45 -24 -45 -25 -45 -387 0 -190 3 -356 6 -369 10 -35
54 -52 133 -52 85 0 117 13 131 53 11 32 15 693 4 722 -12 29 -60 45 -136 45
-40 0 -82 -6 -93 -12z"/>
<path d="M975 3156 c-64 -64 -30 -217 74 -330 45 -49 165 -121 247 -148 98
-33 207 -48 332 -48 168 1 222 23 222 90 0 49 -18 54 -179 51 -173 -3 -260 12
-368 63 -126 60 -223 174 -223 264 0 36 -37 82 -65 82 -9 0 -27 -11 -40 -24z"/>
<path d="M3141 3154 c-12 -16 -21 -42 -21 -63 -1 -117 -120 -228 -315 -292
-61 -19 -94 -23 -248 -25 -126 -1 -182 -6 -193 -15 -25 -20 -14 -78 19 -103
27 -20 41 -21 205 -20 163 0 184 3 267 28 49 15 121 44 160 64 84 44 182 137
215 207 45 93 35 205 -19 235 -31 16 -48 12 -70 -16z"/>
<path d="M877 2702 c-62 -69 -30 -202 74 -303 60 -58 190 -125 274 -140 157
-29 486 23 588 93 50 36 26 108 -37 108 -15 0 -66 -11 -114 -25 -232 -66 -449
-47 -575 49 -53 40 -82 83 -101 150 -23 80 -71 110 -109 68z"/>
<path d="M3241 2694 c-11 -14 -23 -42 -27 -63 -12 -69 -71 -139 -154 -181
-132 -67 -347 -69 -555 -6 -97 30 -150 11 -143 -50 6 -51 128 -103 303 -129
270 -40 444 2 584 142 75 75 101 131 101 213 0 87 -65 130 -109 74z"/>
<path d="M2000 2403 l-35 -18 0 -152 0 -153 27 -27 c23 -22 38 -28 91 -31 47
-3 73 0 96 13 49 25 61 65 61 209 0 163 -4 170 -122 174 -65 2 -91 -1 -118
-15z"/>
<path d="M3285 2182 c-28 -6 -54 -31 -75 -72 -24 -46 -74 -92 -130 -121 -126
-64 -373 -19 -561 102 -68 43 -110 35 -125 -24 -6 -24 0 -34 38 -71 53 -51
225 -138 317 -161 170 -43 332 -26 441 46 102 69 170 161 170 231 0 52 -30 80
-75 70z"/>
<path d="M866 2165 c-76 -76 51 -255 232 -327 48 -19 75 -22 172 -22 161 1
291 40 417 125 108 72 138 123 95 162 -28 26 -60 20 -120 -20 -148 -98 -360
-147 -487 -112 -67 18 -133 67 -176 130 -53 78 -97 100 -133 64z"/>
<path d="M2005 1928 c-30 -17 -35 -28 -35 -89 0 -50 3 -57 25 -67 32 -15 189
-16 216 -2 15 9 19 22 19 70 0 51 -3 61 -26 79 -22 17 -41 21 -103 21 -42 0
-85 -6 -96 -12z"/>
<path d="M1608 1651 c-169 -174 -349 -198 -496 -65 -55 48 -82 54 -112 24 -28
-28 -25 -58 9 -112 73 -115 227 -168 389 -134 104 22 164 58 275 167 92 90 97
98 97 137 0 31 -5 44 -19 52 -42 22 -65 11 -143 -69z"/>
<path d="M2434 1705 c-23 -35 -13 -64 45 -132 69 -82 107 -117 175 -157 151
-90 349 -82 483 20 63 48 93 143 55 177 -29 27 -59 20 -104 -23 -149 -140
-348 -111 -514 74 -50 55 -64 66 -91 66 -24 0 -37 -7 -49 -25z"/>
<path d="M1977 1642 c-23 -26 -22 -94 2 -123 17 -21 29 -24 110 -28 123 -4
141 7 141 87 0 32 -5 63 -12 70 -8 8 -49 12 -118 12 -91 0 -109 -3 -123 -18z"/>
<path d="M2000 1413 c-45 -16 -54 -86 -16 -130 23 -27 28 -28 116 -28 84 0 93
2 111 24 12 15 19 39 19 67 0 62 -22 74 -130 73 -47 0 -92 -3 -100 -6z"/>
<path d="M214 661 c-2 -2 -4 -87 -4 -188 l0 -183 33 0 32 0 -3 75 c-4 75 -3
75 22 75 21 0 34 -14 73 -75 46 -71 50 -75 85 -75 l37 0 -50 72 c-52 77 -57
88 -35 88 26 0 56 50 56 92 0 45 -21 92 -47 104 -20 8 -192 22 -199 15z m170
-67 c9 -8 16 -28 16 -44 0 -42 -24 -60 -81 -60 l-49 0 0 60 0 60 49 0 c32 0
55 -6 65 -16z"/>
<path d="M666 628 c-9 -24 -40 -109 -70 -190 l-54 -148 33 0 c30 0 33 3 45 45
l13 45 77 0 78 0 14 -42 c13 -38 19 -43 47 -46 28 -3 32 -1 27 15 -4 10 -35
95 -70 188 -62 166 -64 170 -94 173 -27 3 -31 -1 -46 -40z m72 -111 c12 -39
22 -74 22 -77 0 -3 -23 -5 -51 -5 -40 0 -49 3 -46 15 25 85 43 140 47 140 3 0
15 -33 28 -73z"/>
<path d="M970 481 l0 -191 83 0 c130 1 190 38 216 138 24 87 -16 180 -95 220
-11 6 -62 14 -112 18 l-92 7 0 -192z m174 119 c58 -22 86 -132 51 -199 -18
-35 -70 -61 -124 -61 l-41 0 0 135 0 135 44 0 c25 0 56 -4 70 -10z"/>
<path d="M1374 661 c-2 -2 -4 -87 -4 -188 l0 -183 33 0 32 0 -3 187 -3 188
-25 0 c-14 0 -28 -2 -30 -4z"/>
<path d="M1635 656 c-123 -54 -139 -267 -26 -341 94 -62 226 -26 267 72 21 49
18 139 -7 190 -39 80 -148 117 -234 79z m141 -55 c40 -24 58 -75 52 -148 -4
-45 -11 -60 -37 -86 -25 -26 -39 -32 -74 -32 -57 0 -91 24 -112 79 -51 133 60
254 171 187z"/>
<path d="M1988 478 l-3 -188 113 0 112 0 0 25 c0 25 -1 25 -80 25 l-80 0 -2
162 -3 161 -27 1 -27 2 -3 -188z"/>
<path d="M2370 663 c-90 -37 -136 -144 -106 -247 45 -153 245 -182 328 -48 29
47 32 159 5 209 -30 57 -81 87 -151 90 -33 1 -68 0 -76 -4z m138 -68 c81 -68
58 -227 -38 -256 -82 -25 -150 39 -150 139 0 29 7 66 15 82 32 61 121 79 173
35z"/>
<path d="M2783 645 c-103 -62 -113 -248 -17 -324 36 -28 99 -44 143 -36 83 16
121 64 121 154 l0 51 -70 0 c-68 0 -70 -1 -70 -25 0 -22 4 -25 40 -25 39 0 40
-1 40 -34 0 -44 -29 -66 -85 -66 -86 0 -132 62 -123 162 7 66 46 108 110 115
39 5 49 2 80 -26 35 -30 35 -30 53 -11 17 19 17 21 -1 41 -50 56 -150 66 -221
24z"/>
<path d="M3171 492 c-35 -97 -66 -183 -69 -189 -3 -9 6 -13 26 -13 26 0 31 6
47 45 l17 46 76 -3 75 -3 15 -42 c13 -40 16 -43 48 -43 34 0 34 0 21 28 -7 15
-40 100 -73 189 -58 161 -59 163 -89 163 -30 0 -30 -1 -94 -178z m149 -56 c0
-1 -104 3 -107 3 -1 1 10 35 24 77 l26 77 28 -78 c16 -44 29 -79 29 -79z"/>
<path d="M3510 478 l0 -188 30 0 30 0 0 75 c0 71 1 75 23 75 17 0 33 -19 69
-75 44 -71 49 -75 83 -75 l36 0 -37 58 c-20 31 -43 64 -50 73 -18 20 -18 29 0
29 8 0 26 14 41 32 23 27 26 39 22 76 -3 30 -13 53 -31 71 -24 23 -36 26 -121
31 l-95 5 0 -187z m180 100 c13 -25 13 -31 0 -55 -14 -24 -23 -28 -68 -31
l-52 -3 0 61 0 61 52 -3 c45 -3 54 -7 68 -30z"/>
<path d="M3824 641 c9 -16 38 -66 66 -112 49 -82 50 -86 50 -161 l0 -78 30 0
30 0 0 81 c0 82 0 82 60 186 33 58 60 107 60 110 0 2 -14 3 -32 1 -28 -3 -37
-11 -73 -75 -22 -39 -43 -74 -46 -77 -3 -3 -25 30 -50 74 -41 74 -46 80 -77
80 l-33 0 15 -29z"/>
</g>
</svg>
